<svg xmlns="http://www.w3.org/2000/svg" viewBox="0 0 1440 900" preserveAspectRatio="xMidYMid slice" fill="none">
  <defs>
    <filter id="glow" x="-50%" y="-50%" width="200%" height="200%">
      <feGaussianBlur stdDeviation="1.4" result="b"/>
      <feMerge>
        <feMergeNode in="b"/>
        <feMergeNode in="SourceGraphic"/>
      </feMerge>
    </filter>
    <linearGradient id="lineGrad" x1="0%" y1="0%" x2="100%" y2="100%">
      <stop offset="0%" stop-color="#0c1e36" stop-opacity="0.42"/>
      <stop offset="50%" stop-color="#1e3a8a" stop-opacity="0.36"/>
      <stop offset="100%" stop-color="#172554" stop-opacity="0.3"/>
    </linearGradient>
  </defs>
  <g stroke="url(#lineGrad)" stroke-width="1" stroke-linecap="round" opacity="0.95">
    <line x1="80" y1="120" x2="220" y2="180"/>
    <line x1="220" y1="180" x2="380" y2="140"/>
    <line x1="380" y1="140" x2="520" y2="220"/>
    <line x1="520" y1="220" x2="680" y2="160"/>
    <line x1="680" y1="160" x2="840" y2="240"/>
    <line x1="140" y1="280" x2="280" y2="320"/>
    <line x1="280" y1="320" x2="440" y2="280"/>
    <line x1="440" y1="280" x2="600" y2="360"/>
    <line x1="600" y1="360" x2="780" y2="300"/>
    <line x1="780" y1="300" x2="920" y2="380"/>
    <line x1="920" y1="380" x2="1080" y2="320"/>
    <line x1="200" y1="420" x2="360" y2="480"/>
    <line x1="360" y1="480" x2="540" y2="440"/>
    <line x1="540" y1="440" x2="700" y2="520"/>
    <line x1="700" y1="520" x2="880" y2="460"/>
    <line x1="880" y1="460" x2="1040" y2="540"/>
    <line x1="1040" y1="540" x2="1200" y2="480"/>
    <line x1="120" y1="560" x2="300" y2="620"/>
    <line x1="300" y1="620" x2="480" y2="580"/>
    <line x1="480" y1="580" x2="660" y2="660"/>
    <line x1="660" y1="660" x2="820" y2="600"/>
    <line x1="820" y1="600" x2="1000" y2="680"/>
    <line x1="1000" y1="680" x2="1180" y2="620"/>
    <line x1="260" y1="80" x2="400" y2="200"/>
    <line x1="900" y1="120" x2="1050" y2="200"/>
    <line x1="1120" y1="400" x2="1280" y2="480"/>
    <line x1="160" y1="680" x2="340" y2="760"/>
    <line x1="580" y1="720" x2="760" y2="800"/>
    <line x1="50" y1="400" x2="180" y2="480"/>
    <line x1="1280" y1="200" x2="1380" y2="320"/>
    <line x1="400" y1="600" x2="520" y2="720"/>
    <line x1="720" y1="80" x2="860" y2="180"/>
    <!-- maille supplémentaire (style capture Alumni) -->
    <line x1="320" y1="150" x2="480" y2="220"/>
    <line x1="480" y1="220" x2="620" y2="180"/>
    <line x1="620" y1="180" x2="780" y2="250"/>
    <line x1="200" y1="350" x2="350" y2="400"/>
    <line x1="350" y1="400" x2="500" y2="350"/>
    <line x1="500" y1="350" x2="650" y2="420"/>
    <line x1="650" y1="420" x2="800" y2="380"/>
    <line x1="800" y1="380" x2="950" y2="450"/>
    <line x1="950" y1="450" x2="1100" y2="400"/>
    <line x1="180" y1="500" x2="320" y2="550"/>
    <line x1="320" y1="550" x2="480" y2="500"/>
    <line x1="480" y1="500" x2="640" y2="580"/>
    <line x1="640" y1="580" x2="800" y2="520"/>
    <line x1="800" y1="520" x2="960" y2="600"/>
    <line x1="960" y1="600" x2="1120" y2="540"/>
    <line x1="400" y1="100" x2="550" y2="160"/>
    <line x1="550" y1="160" x2="700" y2="120"/>
    <line x1="700" y1="120" x2="850" y2="200"/>
    <line x1="100" y1="250" x2="240" y2="300"/>
    <line x1="240" y1="300" x2="400" y2="260"/>
    <line x1="1000" y1="280" x2="1150" y2="340"/>
    <line x1="1150" y1="340" x2="1320" y2="300"/>
    <line x1="250" y1="750" x2="420" y2="820"/>
    <line x1="420" y1="820" x2="600" y2="780"/>
    <line x1="600" y1="780" x2="780" y2="850"/>
    <line x1="900" y1="750" x2="1050" y2="800"/>
    <line x1="520" y1="320" x2="680" y2="380"/>
    <line x1="680" y1="380" x2="820" y2="340"/>
    <line x1="300" y1="200" x2="450" y2="280"/>
    <line x1="450" y1="280" x2="580" y2="240"/>
  </g>
  <g fill="#172554" filter="url(#glow)" opacity="0.72">
    <circle cx="80" cy="120" r="2.8"/>
    <circle cx="220" cy="180" r="2.2"/>
    <circle cx="380" cy="140" r="2.8"/>
    <circle cx="520" cy="220" r="2"/>
    <circle cx="680" cy="160" r="2.8"/>
    <circle cx="840" cy="240" r="2.4"/>
    <circle cx="140" cy="280" r="2"/>
    <circle cx="440" cy="280" r="2.8"/>
    <circle cx="600" cy="360" r="2.4"/>
    <circle cx="920" cy="380" r="2.8"/>
    <circle cx="1080" cy="320" r="2"/>
    <circle cx="360" cy="480" r="2.8"/>
    <circle cx="700" cy="520" r="2.4"/>
    <circle cx="1040" cy="540" r="2.8"/>
    <circle cx="1200" cy="480" r="2"/>
    <circle cx="300" cy="620" r="2.4"/>
    <circle cx="660" cy="660" r="2.8"/>
    <circle cx="1000" cy="680" r="2"/>
    <circle cx="400" cy="200" r="2"/>
    <circle cx="1050" cy="200" r="2.8"/>
    <circle cx="1280" cy="480" r="2.4"/>
    <circle cx="760" cy="800" r="2"/>
    <circle cx="860" cy="180" r="2.8"/>
    <circle cx="1180" cy="620" r="2.4"/>
    <circle cx="320" cy="150" r="2"/>
    <circle cx="620" cy="180" r="2.2"/>
    <circle cx="500" cy="350" r="2.5"/>
    <circle cx="800" cy="380" r="2.2"/>
    <circle cx="480" cy="500" r="2.4"/>
    <circle cx="640" cy="580" r="2.6"/>
    <circle cx="550" cy="160" r="2"/>
    <circle cx="240" cy="300" r="2.3"/>
    <circle cx="1320" cy="300" r="2"/>
    <circle cx="520" cy="320" r="2.2"/>
    <circle cx="300" cy="200" r="2"/>
  </g>
</svg>
